<?xml version="1.0" encoding="UTF-8"?>
<svg version="1.1" xmlns="http://www.w3.org/2000/svg" width="150" height="150">
<path d="M0 0 C1.9375 0.3125 1.9375 0.3125 4 1 C4.495 2.485 4.495 2.485 5 4 C5.99 4.495 5.99 4.495 7 5 C7.4140625 7.28515625 7.4140625 7.28515625 7.625 10.0625 C7.73714844 11.44115234 7.73714844 11.44115234 7.8515625 12.84765625 C7.90054688 13.55792969 7.94953125 14.26820312 8 15 C5.36 15 2.72 15 0 15 C-0.07347656 16.03060547 -0.07347656 16.03060547 -0.1484375 17.08203125 C-0.22320312 17.98308594 -0.29796875 18.88414063 -0.375 19.8125 C-0.44460937 20.70582031 -0.51421875 21.59914063 -0.5859375 22.51953125 C-1 25 -1 25 -3 28 C-6.625 28.1875 -6.625 28.1875 -10 28 C-10.33 30.97 -10.66 33.94 -11 37 C-7.04 37 -3.08 37 1 37 C1.48726562 38.68029297 1.48726562 38.68029297 1.984375 40.39453125 C3.82267241 45.35883871 5.74218562 49.68403697 10 53 C17.9931283 55.63536064 26.65275571 55.64894687 35.00488281 55.75146484 C38.09955163 56.00826081 40.2578887 56.5543041 43 58 C44.93118369 62.04628965 45.21151257 65.55823606 45 70 C46.98 70.495 46.98 70.495 49 71 C49.04241723 73.33294775 49.04092937 75.66702567 49 78 C48 79 48 79 44.9375 79.0625 C43.968125 79.041875 42.99875 79.02125 42 79 C41.92523438 79.59167969 41.85046875 80.18335937 41.7734375 80.79296875 C41.05235997 85.12650332 40.33086283 87.59469304 37.5 91.0625 C33.39535825 93.97709819 28.81078745 93.74012115 24 93 C20.30098464 91.42595091 17.96945149 89.52428162 16 86 C16 84.35 16 82.7 16 81 C1.15 81 -13.7 81 -29 81 C-29.33 83.31 -29.66 85.62 -30 88 C-32.71182739 91.26809967 -34.25030703 92.67671799 -38.41015625 93.4453125 C-44.0501841 93.70051738 -47.6784946 92.88935486 -52 89 C-54.35735328 85.78542734 -54.17742689 82.90339153 -54 79 C-55.9490625 79.0309375 -55.9490625 79.0309375 -57.9375 79.0625 C-59.29165633 79.08399454 -60.64756083 79.07148199 -62 79 C-63 78 -63 78 -63.09765625 76.15234375 C-63.06510417 74.1015625 -63.03255208 72.05078125 -63 70 C-64.98 70 -66.96 70 -69 70 C-70.82915214 66.34169572 -70.22762535 62.02743635 -70.25 58 C-70.270625 57.071875 -70.29125 56.14375 -70.3125 55.1875 C-70.31765625 54.300625 -70.3228125 53.41375 -70.328125 52.5 C-70.3374707 51.6853125 -70.34681641 50.870625 -70.35644531 50.03125 C-70.23881836 49.3609375 -70.12119141 48.690625 -70 48 C-67 46 -67 46 -63.375 46.3125 C-60 47 -60 47 -59 48 C-58.95919217 49.99958364 -58.95745644 52.00045254 -59 54 C-55.22941661 54.73409588 -52.54737385 54.51502425 -49 53 C-45.99384674 49.90320895 -43.61816513 46.3489326 -41.28808594 42.72851562 C-37.63402792 37.18873389 -37.63402792 37.18873389 -33.640625 36 C-32.76921875 36 -31.8978125 36 -31 36 C-31.33 35.46375 -31.66 34.9275 -32 34.375 C-33.30335189 31.27953927 -33.47632194 29.33425359 -33 26 C-30.625 23.25 -30.625 23.25 -28 21 C-27.34 20.34 -26.68 19.68 -26 19 C-24.68252676 18.30251417 -23.35085807 17.63040043 -22 17 C-22.66 16.34 -23.32 15.68 -24 15 C-24.32051241 11.98718336 -24.4851593 9.87935123 -23 7.1875 C-19.81931546 5.29896856 -16.66530121 5.30043453 -13 5 C-12.505 7.475 -12.505 7.475 -12 10 C-11.46375 9.401875 -10.9275 8.80375 -10.375 8.1875 C-7.76857938 5.78684943 -5.15275308 4.57637654 -2 3 C-1.34 2.01 -0.68 1.02 0 0 Z M-5 9 C-5.66 9.66 -6.32 10.32 -7 11 C-3.7 10.67 -0.4 10.34 3 10 C2.67 8.68 2.34 7.36 2 6 C-0.92489068 6 -2.58369451 7.42940143 -5 9 Z M-11 13 C-11.99 14.98 -12.98 16.96 -14 19 C-11.69 19.33 -9.38 19.66 -7 20 C-6.67 18.35 -6.34 16.7 -6 15 C-8.475 14.01 -8.475 14.01 -11 13 Z M-26 29 C-25 33 -25 33 -25 33 Z M-34 42 C-34.33 42.66 -34.66 43.32 -35 44 C-33.68 44.33 -32.36 44.66 -31 45 C-31.04125 45.928125 -31.0825 46.85625 -31.125 47.8125 C-31.27136339 51.15809719 -31.27136339 51.15809719 -29 54 C-27.68 54 -26.36 54 -25 54 C-25 50.04 -25 46.08 -25 42 C-27.97 42 -30.94 42 -34 42 Z M-10 42 C-9.67 45.96 -9.34 49.92 -9 54 C-6.36 54 -3.72 54 -1 54 C-1 52.35 -1 50.7 -1 49 C-0.34 49 0.32 49 1 49 C-0.39759905 45.45481116 -0.39759905 45.45481116 -2 42 C-4.64 42 -7.28 42 -10 42 Z M-37 45 C-38.05654417 46.47506444 -39.0707001 47.98064696 -40.0625 49.5 C-40.88427734 50.75296875 -40.88427734 50.75296875 -41.72265625 52.03125 C-42.35494141 53.00578125 -42.35494141 53.00578125 -43 54 C-40.69 54 -38.38 54 -36 54 C-36 51.03 -36 48.06 -36 45 C-36.33 45 -36.66 45 -37 45 Z M-17 49 C-16 53 -16 53 -16 53 Z M-57 58 C-57 61.96 -57 65.92 -57 70 C-55.9171875 68.824375 -55.9171875 68.824375 -54.8125 67.625 C-49.94761699 63.08444253 -45.96269559 62.62473397 -39.4921875 62.8359375 C-35.80977277 63.07835352 -33.34700287 63.32649857 -30 65 C-29.26604617 66.66174901 -28.5656398 68.33845554 -27.88671875 70.0234375 C-25.68821519 73.81750826 -24.64660603 74.82643596 -20.34912109 75.97998047 C-16.55650913 76.39829978 -12.78917253 76.40472371 -8.97827148 76.30371094 C-6.56699806 76.25010001 -4.17436497 76.3031192 -1.76367188 76.3671875 C6.48713185 76.53922759 6.48713185 76.53922759 13.51611328 72.75585938 C15.38717769 70.11712873 15.38717769 70.11712873 16.69555664 67.33886719 C18.19426865 64.65167627 19.13539622 63.99940019 22 63 C24.24133258 62.71306612 26.4944319 62.51033409 28.75 62.375 C29.92046875 62.30023438 31.0909375 62.22546875 32.296875 62.1484375 C33.63492188 62.07496094 33.63492188 62.07496094 35 62 C35 61.67 35 61.34 35 61 C32.14694871 60.49279088 29.29283186 59.99406366 26.4375 59.5 C25.23770508 59.28537109 25.23770508 59.28537109 24.01367188 59.06640625 C19.26475402 58.25230605 14.81753923 57.84480411 10 58 C9.92652344 59.24716797 9.92652344 59.24716797 9.8515625 60.51953125 C9.77679688 61.60621094 9.70203125 62.69289063 9.625 63.8125 C9.55539063 64.89144531 9.48578125 65.97039062 9.4140625 67.08203125 C9 70 9 70 7 73 C2.77141266 73.72710032 -1.52876389 73.55560187 -5.8125 73.5625 C-7.00166016 73.59923828 -8.19082031 73.63597656 -9.41601562 73.67382812 C-17.71335266 73.7157574 -17.71335266 73.7157574 -20.90380859 71.94091797 C-24.91972563 67.76037866 -24.33736327 63.96373055 -25 58 C-35.56 58 -46.12 58 -57 58 Z M-0.56640625 57.21875 C-2.2534668 57.28642578 -2.2534668 57.28642578 -3.97460938 57.35546875 C-5.15861328 57.40316406 -6.34261719 57.45085937 -7.5625 57.5 C-8.75037109 57.54769531 -9.93824219 57.59539062 -11.16210938 57.64453125 C-14.1080801 57.76284333 -17.05404323 57.88134122 -20 58 C-20 58.33 -20 58.66 -20 59 C-17.36 59 -14.72 59 -12 59 C-12 60.32 -12 61.64 -12 63 C-14.64 63 -17.28 63 -20 63 C-19.45276317 66.37462715 -18.9451 68.08235 -17 71 C-14.80905414 71.43199491 -14.80905414 71.43199491 -12.28125 71.328125 C-11.34925781 71.32296875 -10.41726562 71.3178125 -9.45703125 71.3125 C-8.48121094 71.291875 -7.50539063 71.27125 -6.5 71.25 C-5.52417969 71.24484375 -4.54835938 71.2396875 -3.54296875 71.234375 C1.39017559 71.36713897 1.39017559 71.36713897 6 70 C6 65.71 6 61.42 6 57 C3.81107112 57 1.62014596 57.1308484 -0.56640625 57.21875 Z M39 63 C40 65 40 65 40 65 Z M-48 68 C-48.99 69.485 -48.99 69.485 -50 71 C-48.02 70.34 -46.04 69.68 -44 69 C-45.32 68.67 -46.64 68.34 -48 68 Z M-39 68 C-35 69 -35 69 -35 69 Z M21 68 C21 68.99 21 69.98 21 71 C22.65 70.34 24.3 69.68 26 69 C26 68.67 26 68.34 26 68 C24.35 68 22.7 68 21 68 Z M31 68 C33.8684413 70.10232344 33.8684413 70.10232344 37 71 C36.67 70.01 36.34 69.02 36 68 C34.35 68 32.7 68 31 68 Z M-45 76 C-44.67 76.66 -44.34 77.32 -44 78 C-42.02 77.67 -40.04 77.34 -38 77 C-38.33 76.34 -38.66 75.68 -39 75 C-42.7763932 74.7018576 -42.7763932 74.7018576 -45 76 Z M26 75 C25.67 75.66 25.34 76.32 25 77 C27.31 77.33 29.62 77.66 32 78 C32 77.34 32 76.68 32 76 C29.03 75.505 29.03 75.505 26 75 Z M24 77 C25 79 25 79 25 79 Z M-46 78 C-46.6814823 79.89179203 -46.6814823 79.89179203 -47 82 C-46.34 82.66 -45.68 83.32 -45 84 C-45 82.02 -45 80.04 -45 78 C-45.33 78 -45.66 78 -46 78 Z M-37 79 C-36 83 -36 83 -36 83 Z M23 79 C24 83 24 83 24 83 Z M33 79 C34 83 34 83 34 83 Z M-45 84 C-44.67 84.66 -44.34 85.32 -44 86 C-42.02 86 -40.04 86 -38 86 C-37.67 85.34 -37.34 84.68 -37 84 C-39.64 84 -42.28 84 -45 84 Z M25 84 C25 84.66 25 85.32 25 86 C26.98 86 28.96 86 31 86 C31 85.67 31 85.34 31 85 C28.03 84.505 28.03 84.505 25 84 Z " fill="#000000" transform="translate(84,21)"/>
<path d="M0 0 C1.03898437 0.43570312 2.07796875 0.87140625 3.1484375 1.3203125 C10.2613833 4.59907593 16.16380692 8.80786897 22 14 C23.03060547 14.88945313 23.03060547 14.88945313 24.08203125 15.796875 C35.7607019 26.57718637 44.28003977 42.61126584 45.13916016 58.58789062 C45.959508 83.20640807 45.959508 83.20640807 41 95 C40.525625 96.16402344 40.05125 97.32804687 39.5625 98.52734375 C35.46634312 107.59599876 30.06661682 114.11826559 23 121 C22.319375 121.67804688 21.63875 122.35609375 20.9375 123.0546875 C7.51545679 135.63785301 -8.65038698 140.16926935 -26.5625 140.25 C-28.23795898 140.2809375 -28.23795898 140.2809375 -29.94726562 140.3125 C-40.60944904 140.36194781 -50.3984911 138.39985304 -59.9375 133.5625 C-60.60716797 133.22395996 -61.27683594 132.88541992 -61.96679688 132.53662109 C-78.09891226 123.90096975 -91.298591 107.69190312 -96.8515625 90.33886719 C-98.93585461 82.82405571 -99.4580803 75.77262349 -99.375 68 C-99.38660156 66.91460937 -99.39820312 65.82921875 -99.41015625 64.7109375 C-99.37243095 54.17300291 -97.29928215 44.41009147 -92.5 35 C-92.16033203 34.328479 -91.82066406 33.65695801 -91.47070312 32.96508789 C-87.71809686 25.92727886 -82.71784622 20.49047973 -77 15 C-76.32066406 14.32453125 -75.64132813 13.6490625 -74.94140625 12.953125 C-55.96556929 -4.87863863 -23.97588487 -10.1850065 0 0 Z M-71.5546875 19.60546875 C-72.74158395 21.03932813 -73.87290347 22.51867313 -75 24 C-75.78375 24.70125 -76.5675 25.4025 -77.375 26.125 C-89.84941672 39.78745641 -92.72141294 57.00410482 -92.12744141 74.77587891 C-91.3772659 87.86802228 -85.33179817 100.95911503 -77 111 C-75.04072937 112.7143618 -73.04119788 114.38405168 -71 116 C-70.2575 116.804375 -69.515 117.60875 -68.75 118.4375 C-55.40995145 130.86799978 -37.70884073 133.72031001 -20.19873047 133.140625 C-6.42635327 132.25978009 8.68304766 125.11554825 18 115 C18.77730469 114.4225 19.55460937 113.845 20.35546875 113.25 C23.35150824 110.70093242 25.41351605 107.91578784 27.5 104.625 C27.88800781 104.01720703 28.27601563 103.40941406 28.67578125 102.78320312 C37.9871121 87.63282701 40.41758854 69.60774223 36.9375 52.25 C33.60210151 39.76201515 27.16356316 28.04615417 17 20 C16.2575 19.195625 15.515 18.39125 14.75 17.5625 C1.40389679 5.12635837 -16.29826749 2.28062108 -33.81445312 2.86376953 C-47.07802088 3.69052007 -62.26066611 10.0078738 -71.5546875 19.60546875 Z " fill="#000000" transform="translate(102,7)"/>
<path d="M0 0 C0.80824219 0.19464844 1.61648437 0.38929687 2.44921875 0.58984375 C3.06410156 0.74582031 3.67898437 0.90179688 4.3125 1.0625 C4.3125 2.3825 4.3125 3.7025 4.3125 5.0625 C1.6725 5.0625 -0.9675 5.0625 -3.6875 5.0625 C-2.6975 7.3725 -1.7075 9.6825 -0.6875 12.0625 C-0.00123535 12.05726318 0.6850293 12.05202637 1.39208984 12.04663086 C4.49055064 12.02589044 7.58899686 12.01284924 10.6875 12 C11.76773438 11.99162109 12.84796875 11.98324219 13.9609375 11.97460938 C15.5078125 11.96977539 15.5078125 11.96977539 17.0859375 11.96484375 C18.03903809 11.95960693 18.99213867 11.95437012 19.97412109 11.94897461 C22.3125 12.0625 22.3125 12.0625 24.3125 13.0625 C24.30089844 12.13566406 24.28929688 11.20882812 24.27734375 10.25390625 C24.26832031 9.05636719 24.25929688 7.85882813 24.25 6.625 C24.23839844 5.43003906 24.22679688 4.23507813 24.21484375 3.00390625 C24.3125 0.0625 24.3125 0.0625 25.3125 -0.9375 C34.07080127 -1.97022487 42.79265813 0.28665207 51.3125 2.0625 C51.3125 2.3925 51.3125 2.7225 51.3125 3.0625 C42.84152072 2.59257706 34.62062204 1.80890116 26.3125 0.0625 C26.36470703 1.29226562 26.36470703 1.29226562 26.41796875 2.546875 C26.44503906 3.62453125 26.47210938 4.7021875 26.5 5.8125 C26.55220703 7.41351563 26.55220703 7.41351563 26.60546875 9.046875 C26.26881243 12.51219074 25.74906266 13.62271224 23.3125 16.0625 C19.07314403 16.91654691 14.752743 16.66465358 10.4375 16.625 C9.25285156 16.64884766 8.06820312 16.67269531 6.84765625 16.69726562 C-1.7448769 16.68273485 -1.7448769 16.68273485 -5.98828125 13.890625 C-7.92545499 10.66645537 -8.22435199 8.97424301 -8 5.25 C-7.95488281 4.27417969 -7.90976562 3.29835938 -7.86328125 2.29296875 C-7.80527344 1.55691406 -7.74726562 0.82085937 -7.6875 0.0625 C-4.39053895 -1.03648702 -3.28255097 -0.80874444 0 0 Z " fill="#000000" transform="translate(67.6875,78.9375)"/>
<path d="M0 0 C1.9375 0.3125 1.9375 0.3125 4 1 C4.33 1.99 4.66 2.98 5 4 C5.66 4.33 6.32 4.66 7 5 C6.67 6.32 6.34 7.64 6 9 C5.34 8.01 4.68 7.02 4 6 C4 7.65 4 9.3 4 11 C3.34 10.34 2.68 9.68 2 9 C2 8.01 2 7.02 2 6 C-0.31 7.32 -2.62 8.64 -5 10 C-2.03 10.495 -2.03 10.495 1 11 C1 11.33 1 11.66 1 12 C0.04287109 12.07347656 0.04287109 12.07347656 -0.93359375 12.1484375 C-2.17302734 12.26058594 -2.17302734 12.26058594 -3.4375 12.375 C-4.26121094 12.44460937 -5.08492187 12.51421875 -5.93359375 12.5859375 C-6.61550781 12.72257812 -7.29742187 12.85921875 -8 13 C-8.33 13.66 -8.66 14.32 -9 15 C-9.66 15 -10.32 15 -11 15 C-11.99 16.485 -11.99 16.485 -13 18 C-14.32 17.67 -15.64 17.34 -17 17 C-16.01 17 -15.02 17 -14 17 C-13.40929986 15.05396726 -13.40929986 15.05396726 -13 13 C-13.33 12.67 -13.66 12.34 -14 12 C-14.04080783 10.00041636 -14.04254356 7.99954746 -14 6 C-16.64 6.66 -19.28 7.32 -22 8 C-22 10.64 -22 13.28 -22 16 C-22.66 15.67 -23.32 15.34 -24 15 C-24.35687732 9.64684015 -24.35687732 9.64684015 -23 7.1875 C-19.81931546 5.29896856 -16.66530121 5.30043453 -13 5 C-12.67 6.65 -12.34 8.3 -12 10 C-11.46375 9.401875 -10.9275 8.80375 -10.375 8.1875 C-7.76857938 5.78684943 -5.15275308 4.57637654 -2 3 C-1.34 2.01 -0.68 1.02 0 0 Z " fill="#000000" transform="translate(84,21)"/>
<path d="M0 0 C0.80824219 0.19464844 1.61648437 0.38929687 2.44921875 0.58984375 C3.06410156 0.74582031 3.67898437 0.90179688 4.3125 1.0625 C4.3125 2.3825 4.3125 3.7025 4.3125 5.0625 C1.6725 5.0625 -0.9675 5.0625 -3.6875 5.0625 C-2.6975 8.0325 -1.7075 11.0025 -0.6875 14.0625 C6.9025 14.0625 14.4925 14.0625 22.3125 14.0625 C22.3125 14.3925 22.3125 14.7225 22.3125 15.0625 C18.06272954 15.17861395 13.81336663 15.24972349 9.5625 15.3125 C8.3559375 15.34601563 7.149375 15.37953125 5.90625 15.4140625 C4.16601562 15.43339844 4.16601562 15.43339844 2.390625 15.453125 C1.32231445 15.47407227 0.25400391 15.49501953 -0.84667969 15.51660156 C-4.38374944 14.9512054 -5.53703711 13.87444732 -7.6875 11.0625 C-8.078125 8.265625 -8.078125 8.265625 -7.9375 5.3125 C-7.90140625 4.32765625 -7.8653125 3.3428125 -7.828125 2.328125 C-7.78171875 1.58046875 -7.7353125 0.8328125 -7.6875 0.0625 C-4.39053895 -1.03648702 -3.28255097 -0.80874444 0 0 Z " fill="#000000" transform="translate(67.6875,78.9375)"/>
<path d="M0 0 C0.76183594 -0.01417969 1.52367188 -0.02835937 2.30859375 -0.04296875 C4.79597315 0.21137334 6.41058106 0.94732804 8.5625 2.1875 C6.5625 3.1875 6.5625 3.1875 4.0625 2.625 C3.2375 2.480625 2.4125 2.33625 1.5625 2.1875 C0.9025 2.8475 0.2425 3.5075 -0.4375 4.1875 C-1.200625 4.435 -1.96375 4.6825 -2.75 4.9375 C-6.31136785 6.59395016 -8.68137494 8.69720145 -10.4375 12.1875 C-10.83568756 15.23861221 -10.74312878 18.13121224 -10.4375 21.1875 C-12.4375 19.1875 -12.4375 19.1875 -12.5625 16.0625 C-12.52125 15.11375 -12.48 14.165 -12.4375 13.1875 C-13.736875 13.208125 -15.03625 13.22875 -16.375 13.25 C-17.72915633 13.27149454 -19.08506083 13.25898199 -20.4375 13.1875 C-21.4375 12.1875 -21.4375 12.1875 -21.5 8.625 C-21.479375 7.490625 -21.45875 6.35625 -21.4375 5.1875 C-21.1075 5.1875 -20.7775 5.1875 -20.4375 5.1875 C-20.1075 7.1675 -19.7775 9.1475 -19.4375 11.1875 C-16.4675 11.6825 -16.4675 11.6825 -13.4375 12.1875 C-13.128125 11.23875 -12.81875 10.29 -12.5 9.3125 C-11.4375 6.1875 -11.4375 6.1875 -10.4375 4.1875 C-7.875 3.5625 -7.875 3.5625 -5.4375 3.1875 C-6.0975 2.5275 -6.7575 1.8675 -7.4375 1.1875 C-4.66697819 0.26399273 -2.87061242 0.02420415 0 0 Z " fill="#000000" transform="translate(42.4375,86.8125)"/>
<path d="M0 0 C3 1 3 1 4 3 C4.039992 4.99960012 4.04346799 7.00047242 4 9 C-3.75 10.125 -3.75 10.125 -6 9 C-6 7.02 -6 5.04 -6 3 C-5.195625 2.690625 -4.39125 2.38125 -3.5625 2.0625 C-1.10919595 1.23664655 -1.10919595 1.23664655 0 0 Z M2 4 C3 8 3 8 3 8 Z " fill="#000000" transform="translate(45,96)"/>
<path d="M0 0 C1.4375 2.625 1.4375 2.625 2 5 C-0.5 3.625 -0.5 3.625 -3 2 C-3 1.34 -3 0.68 -3 0 C-12.405 0.495 -12.405 0.495 -22 1 C-21 -1 -21 -1 -19.23828125 -1.61328125 C-12.8008677 -2.72550453 -6.01830805 -2.63300977 0 0 Z " fill="#000000" transform="translate(54,85)"/>
<path d="M0 0 C1.32 0.33 2.64 0.66 4 1 C4 1.66 4 2.32 4 3 C11.59 3 19.18 3 27 3 C27 3.33 27 3.66 27 4 C18.42 4 9.84 4 1 4 C0.67 2.68 0.34 1.36 0 0 Z " fill="#000000" transform="translate(63,90)"/>
<path d="M0 0 C0.33 0 0.66 0 1 0 C1.33 1.98 1.66 3.96 2 6 C4.97 6.495 4.97 6.495 8 7 C8.66 5.68 9.32 4.36 10 3 C10.8723412 5.99480917 11.10829766 8.63575911 11.0625 11.75 C11.05347656 12.54921875 11.04445313 13.3484375 11.03515625 14.171875 C11.02355469 14.77515625 11.01195312 15.3784375 11 16 C9 14 9 14 8.875 10.875 C8.91625 9.92625 8.9575 8.9775 9 8 C7.700625 8.020625 6.40125 8.04125 5.0625 8.0625 C3.70834367 8.08399454 2.35243917 8.07148199 1 8 C0 7 0 7 -0.0625 3.4375 C-0.041875 2.303125 -0.02125 1.16875 0 0 Z " fill="#000000" transform="translate(21,92)"/>
<path d="M0 0 C1.65 0.33 3.3 0.66 5 1 C4.67 2.65 4.34 4.3 4 6 C2.35 5.67 0.7 5.34 -1 5 C-0.67 3.35 -0.34 1.7 0 0 Z " fill="#000000" transform="translate(41,99)"/>
<path d="M0 0 C0.99 0.66 1.98 1.32 3 2 C1.92598892 4.91517292 1.22189824 6.77810176 -1 9 C-3.5 9.25 -3.5 9.25 -6 9 C-6.66 8.34 -7.32 7.68 -8 7 C-7.625 4.875 -7.625 4.875 -7 3 C-6.34 4.32 -5.68 5.64 -5 7 C-4.01 7 -3.02 7 -2 7 C-1.34 4.69 -0.68 2.38 0 0 Z " fill="#000000" transform="translate(116,97)"/>
<path d="M0 0 C0.33 0.66 0.66 1.32 1 2 C3.52733235 2.65555119 3.52733235 2.65555119 6 3 C5.67 4.98 5.34 6.96 5 9 C4.67 9 4.34 9 4 9 C4 7.02 4 5.04 4 3 C3.01 3 2.02 3 1 3 C1 5.64 1 8.28 1 11 C0.67 11 0.34 11 0 11 C-0.2165625 9.6078125 -0.2165625 9.6078125 -0.4375 8.1875 C-0.92100111 4.99274889 -0.92100111 4.99274889 -2 2 C-1.34 2 -0.68 2 0 2 C0 1.34 0 0.68 0 0 Z " fill="#000000" transform="translate(48,63)"/>
<path d="M0 0 C0.99 0 1.98 0 3 0 C3 5.28 3 10.56 3 16 C2.67 16 2.34 16 2 16 C1.93941406 15.18015625 1.87882812 14.3603125 1.81640625 13.515625 C1.73261719 12.43796875 1.64882812 11.3603125 1.5625 10.25 C1.48128906 9.18265625 1.40007812 8.1153125 1.31640625 7.015625 C1.05909227 4.56320038 0.68187782 2.36078709 0 0 Z " fill="#000000" transform="translate(88,75)"/>
<path d="M0 0 C3 1 3 1 5 4 C4.67 4.99 4.34 5.98 4 7 C3.34 7 2.68 7 2 7 C0 2.25 0 2.25 0 0 Z " fill="#000000" transform="translate(121,91)"/>
</svg>
